<?xml version="1.0" encoding="UTF-8"?>
<svg width="22px" height="22px" viewBox="0 0 22 22" version="1.1" xmlns="http://www.w3.org/2000/svg" xmlns:xlink="http://www.w3.org/1999/xlink">
    <title>580CE304-472A-4F37-A528-F554F5B945E8</title>
    <g id="BOAT" stroke="none" stroke-width="1" fill="none" fill-rule="evenodd">
        <g id="HENNESSY-CHATBOT-ECRAN2" transform="translate(-335.000000, -18.000000)" fill="#FFFFFF" fill-rule="nonzero">
            <path d="M347.215389,29.0000483 L356.748279,19.4670921 C357.083907,19.1314633 357.083907,18.5873073 356.748279,18.2517216 C356.412651,17.9161358 355.868496,17.9160928 355.532912,18.2517216 L345.999979,27.7846778 L336.467088,18.2517216 C336.131461,17.9160928 335.587306,17.9160928 335.251721,18.2517216 C334.916136,18.5873503 334.916093,19.1315063 335.251721,19.4670921 L344.784611,29 L335.251721,38.5329617 C334.916093,38.8685904 334.916093,39.4127464 335.251721,39.7483322 C335.419513,39.916125 335.63947,40 335.859426,40 C336.079383,40 336.299296,39.916125 336.467131,39.7483322 L345.999979,30.2154188 L355.532869,39.7483322 C355.700661,39.916125 355.920617,40 356.140574,40 C356.36053,40 356.580444,39.916125 356.748279,39.7483322 C357.083907,39.4127034 357.083907,38.8685474 356.748279,38.5329617 L347.215389,29.0000483 Z" id="Path"></path>
        </g>
    </g>
</svg>