<?xml version="1.0" encoding="UTF-8"?>
<svg width="46px" height="70px" viewBox="0 0 46 70" version="1.1" xmlns="http://www.w3.org/2000/svg" xmlns:xlink="http://www.w3.org/1999/xlink">
    <title>2AFD0D82-2B88-42A4-B9C2-55833C4C042D</title>
    <g id="BOAT" stroke="none" stroke-width="1" fill="none" fill-rule="evenodd" stroke-linecap="round" stroke-linejoin="round">
        <g id="HENNESSY-CHATBOT-ECRAN4" transform="translate(-109.000000, -468.000000)" stroke="#FEFEFE" stroke-width="2">
            <g id="Group-2" transform="translate(110.000000, 442.000000)">
                <g id="Group-13" transform="translate(-0.000000, 27.000000)">
                    <path d="M43.428,25.7796 L44,61.5796 C43.33,65.2136 40.201,67.8876 36.49,68.0006 L7.51,68.0006 C3.799,67.8856 0.671,65.2116 0,61.5796 L0.571,25.7796" id="Stroke-1"></path>
                    <line x1="0.5711" y1="25.7796" x2="43.4281" y2="25.7796" id="Stroke-3"></line>
                    <line x1="0.9998" y1="42" x2="42.9998" y2="42.0003" id="Stroke-5"></line>
                    <path d="M36.2854,17.0511 C39.4414,17.0511 41.9994,14.5071 41.9994,11.3671 C41.9994,8.2291 39.4414,5.6841 36.2854,5.6841 C33.1294,5.6841 30.5714,8.2291 30.5714,11.3671 C30.5714,14.5071 33.1294,17.0511 36.2854,17.0511 Z" id="Stroke-7"></path>
                    <line x1="36.9627" y1="5.724" x2="37.7137" y2="0" id="Stroke-9"></line>
                    <line x1="28.7967" y1="68.0003" x2="35.4847" y2="16.9913" id="Stroke-11"></line>
                </g>
            </g>
        </g>
    </g>
</svg>